<svg width="20" height="20" 
    xmlns="http://www.w3.org/2000/svg">
    <g fill="none" fill-rule="evenodd">
        <rect fill="#1C203D" width="20" height="20" rx="4"/>
        <path d="M5.12 9.264v.32a.069.069 0 0 1-.064.064h-.4a.034.034 0 0 0-.032.032v1.696a.069.069 0 0 1-.064.064h-.32a.069.069 0 0 1-.064-.064V9.68a.034.034 0 0 0-.032-.032h-.4a.069.069 0 0 1-.064-.064v-.32c0-.032.032-.064.064-.064h1.312c.032 0 .064.032.064.064zM6.88 9.2h-.32a.069.069 0 0 0-.064.064v1.504c0 .144-.112.256-.312.256-.192 0-.304-.112-.304-.256V9.264a.069.069 0 0 0-.064-.064h-.32a.069.069 0 0 0-.064.064v1.504c0 .384.32.704.752.704.44 0 .76-.32.76-.704V9.264A.069.069 0 0 0 6.88 9.2zm1.808 0h-.32a.069.069 0 0 0-.064.064v1.2c0 .016-.024.024-.032.008l-.44-1.216c-.008-.032-.032-.056-.08-.056h-.384a.069.069 0 0 0-.064.064v2.112c0 .032.032.064.064.064h.32a.069.069 0 0 0 .064-.064v-1.104c0-.016.024-.024.032-.008l.432 1.12c.008.024.032.056.088.056h.376a.069.069 0 0 0 .064-.064V9.264c.008-.032-.024-.064-.056-.064zm1.656 1.792h-.76a.034.034 0 0 1-.032-.032v-.384c0-.016.016-.032.032-.032h.72a.069.069 0 0 0 .064-.064v-.32a.069.069 0 0 0-.064-.064h-.72a.034.034 0 0 1-.032-.032V9.68c0-.016.016-.032.032-.032h.744a.069.069 0 0 0 .064-.064v-.32a.069.069 0 0 0-.064-.064h-1.16a.069.069 0 0 0-.064.064v2.112c0 .032.032.064.064.064h1.176a.069.069 0 0 0 .064-.064v-.32a.069.069 0 0 0-.064-.064zM18 6.24v4.96c0 .136-.104.24-.24.24h-5.52v1.36c0 .136-.104.24-.24.24H2.24A.236.236 0 0 1 2 12.8V7.84c0-.136.104-.24.24-.24h9.52V6.24c0-.136.104-.24.24-.24h5.76c.136 0 .24.104.24.24zm-6.24 1.84H2.52c-.024 0-.04.016-.04.04v4.4c0 .024.016.04.04.04h9.2c.024 0 .04-.016.04-.04V8.08zm2.864 1.392a.069.069 0 0 0-.064-.064h-.272a.034.034 0 0 1-.032-.032V8.064c0-.016.016-.032.032-.032h.24a.069.069 0 0 0 .064-.064v-.304a.069.069 0 0 0-.064-.064h-.992a.069.069 0 0 0-.064.064v.304c0 .032.032.064.064.064h.24c.016 0 .032.016.032.032v1.312a.034.034 0 0 1-.032.032h-.272a.069.069 0 0 0-.064.064v.304c0 .032.032.064.064.064h1.056a.069.069 0 0 0 .064-.064v-.304zm1.792-1.808a.069.069 0 0 0-.064-.064h-.32a.069.069 0 0 0-.064.064v1.2c0 .016-.024.024-.032.008l-.44-1.216c-.008-.032-.032-.056-.08-.056h-.376a.069.069 0 0 0-.064.064v2.112c0 .032.032.064.064.064h.32a.069.069 0 0 0 .064-.064V8.672c0-.016.024-.024.032-.008l.432 1.12c.008.024.032.056.088.056h.376a.069.069 0 0 0 .064-.064V7.664z" fill="#14D8CC" fill-rule="nonzero"/>
    </g>
</svg>