<svg width="20" height="20" 
    xmlns="http://www.w3.org/2000/svg">
    <defs>
        <linearGradient x1="50%" y1="0%" x2="50%" y2="98.521%" id="a">
            <stop stop-color="#E74A4E" offset="0%"/>
            <stop stop-color="#AB1B1D" offset="100%"/>
        </linearGradient>
    </defs>
    <g fill="none" fill-rule="evenodd">
        <rect fill="url(#a)" width="20" height="20" rx="4"/>
        <path d="M13.648 4C12.133 4 10.78 4.809 10 5.987A4.354 4.354 0 0 0 6.352 4 4.358 4.358 0 0 0 2 8.364c0 1.356.733 2.687 1.701 3.488.04.047 2.471 2.296 4.615 4.277v-3.2c0-2.184 3.33-2.168 3.33 0v3.227l4.379-4.14C17.098 11.147 18 9.895 18 8.365A4.358 4.358 0 0 0 13.648 4M6.09 11.807a.3.3 0 0 1-.426.026c-1.3-1.155-1.958-2.36-1.958-3.584v-.014c0-1.051.64-2.246 1.488-2.78a.3.3 0 0 1 .415.096.303.303 0 0 1-.095.417c-.677.424-1.206 1.42-1.206 2.267v.014c0 1.042.591 2.096 1.756 3.131a.304.304 0 0 1 .026.427m1.94-1.122a.301.301 0 0 1-.41.116c-.882-.495-1.475-1.466-1.479-2.42v-.01a2.44 2.44 0 0 1 1.304-2.155.3.3 0 0 1 .408.126c.077.148.02.33-.127.409a1.836 1.836 0 0 0-.981 1.625c.001.744.47 1.505 1.169 1.897a.304.304 0 0 1 .116.412m1.98-.772a1.309 1.309 0 0 1-.925-2.236 1.308 1.308 0 1 1 1.85 1.851 1.308 1.308 0 0 1-.926.385m2.37.888a.302.302 0 1 1-.295-.528c.698-.391 1.168-1.153 1.17-1.897 0-.682-.378-1.307-.982-1.625a.303.303 0 0 1 .282-.535c.8.422 1.302 1.251 1.304 2.156v.009c-.005.954-.598 1.925-1.48 2.42m3.915-2.552c0 1.223-.66 2.429-1.958 3.584a.304.304 0 0 1-.427-.026.304.304 0 0 1 .026-.427c1.165-1.036 1.756-2.089 1.756-3.131v-.014c0-.847-.53-1.843-1.205-2.268a.302.302 0 1 1 .32-.512c.848.533 1.488 1.728 1.488 2.78v.014" fill="#FFF" fill-rule="nonzero"/>
    </g>
</svg>